<?xml version="1.0" standalone="no"?>
<!DOCTYPE svg PUBLIC "-//W3C//DTD SVG 1.1//EN" "http://www.w3.org/Graphics/SVG/1.1/DTD/svg11.dtd">
<svg viewBox="0 0 584.000000 420.000000" version="1.1" xmlns="http://www.w3.org/2000/svg" xmlns:xlink="http://www.w3.org/1999/xlink">
	<polyline fill="none" stroke="rgb(229,229,229)" stroke-width="1" stroke-opacity="1" points="37.000000,34.000000 37.000000,395.000000"/>
	<polyline fill="none" stroke="rgb(229,229,229)" stroke-width="1" stroke-opacity="1" points="89.200000,34.000000 89.200000,395.000000"/>
	<polyline fill="none" stroke="rgb(229,229,229)" stroke-width="1" stroke-opacity="1" points="141.400000,34.000000 141.400000,395.000000"/>
	<polyline fill="none" stroke="rgb(229,229,229)" stroke-width="1" stroke-opacity="1" points="193.600000,34.000000 193.600000,395.000000"/>
	<polyline fill="none" stroke="rgb(229,229,229)" stroke-width="1" stroke-opacity="1" points="245.800000,34.000000 245.800000,395.000000"/>
	<polyline fill="none" stroke="rgb(229,229,229)" stroke-width="1" stroke-opacity="1" points="298.000000,34.000000 298.000000,395.000000"/>
	<polyline fill="none" stroke="rgb(229,229,229)" stroke-width="1" stroke-opacity="1" points="350.200000,34.000000 350.200000,395.000000"/>
	<polyline fill="none" stroke="rgb(229,229,229)" stroke-width="1" stroke-opacity="1" points="402.400000,34.000000 402.400000,395.000000"/>
	<polyline fill="none" stroke="rgb(229,229,229)" stroke-width="1" stroke-opacity="1" points="454.600000,34.000000 454.600000,395.000000"/>
	<polyline fill="none" stroke="rgb(229,229,229)" stroke-width="1" stroke-opacity="1" points="506.800000,34.000000 506.800000,395.000000"/>
	<polyline fill="none" stroke="rgb(229,229,229)" stroke-width="1" stroke-opacity="1" points="559.000000,34.000000 559.000000,395.000000"/>
	<polyline fill="none" stroke="rgb(229,229,229)" stroke-width="1" stroke-opacity="1" points="37.000000,395.000000 559.000000,395.000000"/>
	<polyline fill="none" stroke="rgb(229,229,229)" stroke-width="1" stroke-opacity="1" points="37.000000,354.888889 559.000000,354.888889"/>
	<polyline fill="none" stroke="rgb(229,229,229)" stroke-width="1" stroke-opacity="1" points="37.000000,314.777778 559.000000,314.777778"/>
	<polyline fill="none" stroke="rgb(229,229,229)" stroke-width="1" stroke-opacity="1" points="37.000000,274.666667 559.000000,274.666667"/>
	<polyline fill="none" stroke="rgb(229,229,229)" stroke-width="1" stroke-opacity="1" points="37.000000,234.555556 559.000000,234.555556"/>
	<polyline fill="none" stroke="rgb(229,229,229)" stroke-width="1" stroke-opacity="1" points="37.000000,194.444444 559.000000,194.444444"/>
	<polyline fill="none" stroke="rgb(229,229,229)" stroke-width="1" stroke-opacity="1" points="37.000000,154.333333 559.000000,154.333333"/>
	<polyline fill="none" stroke="rgb(229,229,229)" stroke-width="1" stroke-opacity="1" points="37.000000,114.222222 559.000000,114.222222"/>
	<polyline fill="none" stroke="rgb(229,229,229)" stroke-width="1" stroke-opacity="1" points="37.000000,74.111111 559.000000,74.111111"/>
	<polyline fill="none" stroke="rgb(229,229,229)" stroke-width="1" stroke-opacity="1" points="37.000000,34.000000 559.000000,34.000000"/>
	<polyline fill="none" stroke="rgb(192,192,192)" stroke-width="1" stroke-opacity="1" points="37.000000,274.666667 559.000000,274.666667"/>
	<polyline fill="none" stroke="rgb(0,0,0)" stroke-width="1" stroke-opacity="1" points="37.000000,395.000000 559.000000,395.000000"/>
	<polyline fill="none" stroke="rgb(0,0,0)" stroke-width="1" stroke-opacity="1" points="559.000000,395.000000 559.000000,34.000000"/>
	<polyline fill="none" stroke="rgb(0,0,0)" stroke-width="1" stroke-opacity="1" points="559.000000,34.000000 37.000000,34.000000"/>
	<polyline fill="none" stroke="rgb(0,0,0)" stroke-width="1" stroke-opacity="1" points="37.000000,34.000000 37.000000,395.000000"/>
	<polyline fill="none" stroke="rgb(0,0,0)" stroke-width="1" stroke-opacity="1" points="37.000000,395.000000 37.000000,399.000000"/>
	<polyline fill="none" stroke="rgb(0,0,0)" stroke-width="1" stroke-opacity="1" points="89.200000,395.000000 89.200000,399.000000"/>
	<polyline fill="none" stroke="rgb(0,0,0)" stroke-width="1" stroke-opacity="1" points="141.400000,395.000000 141.400000,399.000000"/>
	<polyline fill="none" stroke="rgb(0,0,0)" stroke-width="1" stroke-opacity="1" points="193.600000,395.000000 193.600000,399.000000"/>
	<polyline fill="none" stroke="rgb(0,0,0)" stroke-width="1" stroke-opacity="1" points="245.800000,395.000000 245.800000,399.000000"/>
	<polyline fill="none" stroke="rgb(0,0,0)" stroke-width="1" stroke-opacity="1" points="298.000000,395.000000 298.000000,399.000000"/>
	<polyline fill="none" stroke="rgb(0,0,0)" stroke-width="1" stroke-opacity="1" points="350.200000,395.000000 350.200000,399.000000"/>
	<polyline fill="none" stroke="rgb(0,0,0)" stroke-width="1" stroke-opacity="1" points="402.400000,395.000000 402.400000,399.000000"/>
	<polyline fill="none" stroke="rgb(0,0,0)" stroke-width="1" stroke-opacity="1" points="454.600000,395.000000 454.600000,399.000000"/>
	<polyline fill="none" stroke="rgb(0,0,0)" stroke-width="1" stroke-opacity="1" points="506.800000,395.000000 506.800000,399.000000"/>
	<polyline fill="none" stroke="rgb(0,0,0)" stroke-width="1" stroke-opacity="1" points="559.000000,395.000000 559.000000,399.000000"/>
	<polyline fill="none" stroke="rgb(0,0,0)" stroke-width="1" stroke-opacity="1" points="37.000000,395.000000 37.000000,401.400000"/>
	<text x="37" y="410" fill="rgb(0,0,0)" dominant-baseline="central" font-size="11" font-family="Arial" text-anchor="middle">0.0</text>
	<polyline fill="none" stroke="rgb(0,0,0)" stroke-width="1" stroke-opacity="1" points="141.400000,395.000000 141.400000,401.400000"/>
	<text x="141.4" y="410" fill="rgb(0,0,0)" dominant-baseline="central" font-size="11" font-family="Arial" text-anchor="middle">0.2</text>
	<polyline fill="none" stroke="rgb(0,0,0)" stroke-width="1" stroke-opacity="1" points="245.800000,395.000000 245.800000,401.400000"/>
	<text x="245.8" y="410" fill="rgb(0,0,0)" dominant-baseline="central" font-size="11" font-family="Arial" text-anchor="middle">0.4</text>
	<polyline fill="none" stroke="rgb(0,0,0)" stroke-width="1" stroke-opacity="1" points="350.200000,395.000000 350.200000,401.400000"/>
	<text x="350.2" y="410" fill="rgb(0,0,0)" dominant-baseline="central" font-size="11" font-family="Arial" text-anchor="middle">0.6</text>
	<polyline fill="none" stroke="rgb(0,0,0)" stroke-width="1" stroke-opacity="1" points="454.600000,395.000000 454.600000,401.400000"/>
	<text x="454.6" y="410" fill="rgb(0,0,0)" dominant-baseline="central" font-size="11" font-family="Arial" text-anchor="middle">0.8</text>
	<polyline fill="none" stroke="rgb(0,0,0)" stroke-width="1" stroke-opacity="1" points="559.000000,395.000000 559.000000,401.400000"/>
	<text x="559" y="410" fill="rgb(0,0,0)" dominant-baseline="central" font-size="11" font-family="Arial" text-anchor="middle">1.0</text>
	<polyline fill="none" stroke="rgb(0,0,0)" stroke-width="1" stroke-opacity="1" points="33.000000,395.000000 37.000000,395.000000"/>
	<polyline fill="none" stroke="rgb(0,0,0)" stroke-width="1" stroke-opacity="1" points="33.000000,354.888889 37.000000,354.888889"/>
	<polyline fill="none" stroke="rgb(0,0,0)" stroke-width="1" stroke-opacity="1" points="33.000000,314.777778 37.000000,314.777778"/>
	<polyline fill="none" stroke="rgb(0,0,0)" stroke-width="1" stroke-opacity="1" points="33.000000,274.666667 37.000000,274.666667"/>
	<polyline fill="none" stroke="rgb(0,0,0)" stroke-width="1" stroke-opacity="1" points="33.000000,234.555556 37.000000,234.555556"/>
	<polyline fill="none" stroke="rgb(0,0,0)" stroke-width="1" stroke-opacity="1" points="33.000000,194.444444 37.000000,194.444444"/>
	<polyline fill="none" stroke="rgb(0,0,0)" stroke-width="1" stroke-opacity="1" points="33.000000,154.333333 37.000000,154.333333"/>
	<polyline fill="none" stroke="rgb(0,0,0)" stroke-width="1" stroke-opacity="1" points="33.000000,114.222222 37.000000,114.222222"/>
	<polyline fill="none" stroke="rgb(0,0,0)" stroke-width="1" stroke-opacity="1" points="33.000000,74.111111 37.000000,74.111111"/>
	<polyline fill="none" stroke="rgb(0,0,0)" stroke-width="1" stroke-opacity="1" points="33.000000,34.000000 37.000000,34.000000"/>
	<rect fill="none" stroke="none" stroke-dasharray="none" stroke-width="1" stroke-opacity="1" x="-22" y="388" width="51" height="14"/>
	<polyline fill="none" stroke="rgb(0,0,0)" stroke-width="1" stroke-opacity="1" points="30.600000,395.000000 37.000000,395.000000"/>
	<text x="29" y="395" fill="rgb(0,0,0)" dominant-baseline="central" font-size="11" font-family="Arial" text-anchor="end">-3</text>
	<polyline fill="none" stroke="rgb(0,0,0)" stroke-width="1" stroke-opacity="1" points="30.600000,354.888889 37.000000,354.888889"/>
	<text x="29" y="354.889" fill="rgb(0,0,0)" dominant-baseline="central" font-size="11" font-family="Arial" text-anchor="end">-2</text>
	<polyline fill="none" stroke="rgb(0,0,0)" stroke-width="1" stroke-opacity="1" points="30.600000,314.777778 37.000000,314.777778"/>
	<text x="29" y="314.778" fill="rgb(0,0,0)" dominant-baseline="central" font-size="11" font-family="Arial" text-anchor="end">-1</text>
	<polyline fill="none" stroke="rgb(0,0,0)" stroke-width="1" stroke-opacity="1" points="30.600000,274.666667 37.000000,274.666667"/>
	<text x="29" y="274.667" fill="rgb(0,0,0)" dominant-baseline="central" font-size="11" font-family="Arial" text-anchor="end">0</text>
	<polyline fill="none" stroke="rgb(0,0,0)" stroke-width="1" stroke-opacity="1" points="30.600000,234.555556 37.000000,234.555556"/>
	<text x="29" y="234.556" fill="rgb(0,0,0)" dominant-baseline="central" font-size="11" font-family="Arial" text-anchor="end">1</text>
	<polyline fill="none" stroke="rgb(0,0,0)" stroke-width="1" stroke-opacity="1" points="30.600000,194.444444 37.000000,194.444444"/>
	<text x="29" y="194.444" fill="rgb(0,0,0)" dominant-baseline="central" font-size="11" font-family="Arial" text-anchor="end">2</text>
	<polyline fill="none" stroke="rgb(0,0,0)" stroke-width="1" stroke-opacity="1" points="30.600000,154.333333 37.000000,154.333333"/>
	<text x="29" y="154.333" fill="rgb(0,0,0)" dominant-baseline="central" font-size="11" font-family="Arial" text-anchor="end">3</text>
	<polyline fill="none" stroke="rgb(0,0,0)" stroke-width="1" stroke-opacity="1" points="30.600000,114.222222 37.000000,114.222222"/>
	<text x="29" y="114.222" fill="rgb(0,0,0)" dominant-baseline="central" font-size="11" font-family="Arial" text-anchor="end">4</text>
	<polyline fill="none" stroke="rgb(0,0,0)" stroke-width="1" stroke-opacity="1" points="30.600000,74.111111 37.000000,74.111111"/>
	<text x="29" y="74.1111" fill="rgb(0,0,0)" dominant-baseline="central" font-size="11" font-family="Arial" text-anchor="end">5</text>
	<polyline fill="none" stroke="rgb(0,0,0)" stroke-width="1" stroke-opacity="1" points="30.600000,34.000000 37.000000,34.000000"/>
	<text x="29" y="34" fill="rgb(0,0,0)" dominant-baseline="central" font-size="11" font-family="Arial" text-anchor="end">6</text>
	<clipPath id="clipArea1">
		<rect x="37" y="34" width="522" height="361">
		</rect>
	</clipPath>
	<polyline fill="none" stroke="rgb(28,108,200)" stroke-width="1" stroke-opacity="1" clip-path="url(#clipArea1)" points="37.000000,354.888889 38.044000,353.049300 39.088000,351.220700 40.132000,349.402992 41.176000,347.596167 42.220000,345.799977 43.264000,344.014468 44.308000,342.239666 45.352000,340.475560 46.396000,338.721806 47.440000,336.978510 48.484000,335.245738 49.528000,333.523495 50.572000,331.811356 51.616000,330.109363 52.660000,328.417656 53.704001,326.736229 54.748001,325.064729 55.791999,323.403088 56.835999,321.751489 57.880000,320.109922 58.924000,318.478204 59.968000,316.856155 61.012000,315.243842 62.056000,313.641211 63.100000,312.048206 64.144001,310.464778 65.188001,308.890868 66.232001,307.326426 67.275999,305.771365 68.319999,304.225581 69.363999,302.689058 70.408002,301.161741 71.452000,299.643572 72.496002,298.134489 73.540000,296.634436 74.583998,295.143354 75.628000,293.661190 76.671999,292.187938 77.716001,290.723501 78.759999,289.267823 79.804001,287.820849 80.847999,286.382521 81.892002,284.952783 82.936000,283.531580 83.980002,282.118854 85.024000,280.714641 86.067998,279.318831 87.112000,277.931367 88.155999,276.552196 89.200001,275.181265 90.243999,273.818522 91.288001,272.463914 92.331999,271.117388 93.376001,269.778953 94.420000,268.448540 95.464002,267.126084 96.508000,265.811534 97.551998,264.504841 98.596000,263.205955 99.639999,261.914828 100.684001,260.631408 101.727999,259.355672 102.772001,258.087579 103.816003,256.827065 104.859998,255.574091 105.904000,254.328606 106.948002,253.090566 107.992004,251.859926 109.035998,250.636645 110.080000,249.420675 111.124002,248.211973 112.167997,247.010496 113.211999,245.816199 114.256001,244.629038 115.300003,243.448974 116.343997,242.275959 117.388000,241.109955 118.432002,239.950922 119.476004,238.798837 120.519998,237.653642 121.564000,236.515297 122.608002,235.383763 123.651997,234.258995 124.695999,233.140962 125.740001,232.029619 126.784003,230.924922 127.827997,229.826842 128.872000,228.735338 129.916002,227.650370 130.960004,226.571900 132.003998,225.499890 133.048000,224.434307 134.092002,223.375088 135.135997,222.322180 136.179999,221.275570 137.224001,220.235225 138.268003,219.201099 139.311997,218.173167 140.355999,217.151383 141.400002,216.135715 142.444004,215.126124 143.487998,214.122577 144.532000,213.125036 145.576002,212.133468 146.619997,211.147833 147.663999,210.168099 148.708001,209.194232 149.752003,208.226184 150.795997,207.263917 151.839999,206.307412 152.884001,205.356630 153.928004,204.411534 154.971998,203.472090 156.016000,202.538273 157.060002,201.610042 158.103997,200.687362 159.147999,199.770205 160.192001,198.858532 161.236003,197.952320 162.279997,197.051530 163.323999,196.156129 164.368001,195.266084 165.412004,194.381356 166.455998,193.501921 167.500000,192.627755 168.544002,191.758811 169.588004,190.895060 170.632006,190.036482 171.675993,189.183040 172.719995,188.334705 173.763997,187.491447 174.807999,186.653230 175.852001,185.820023 176.896003,184.991809 177.940006,184.168549 178.984008,183.350223 180.027994,182.536774 181.071996,181.728193 182.115999,180.924432 183.160001,180.125491 184.204003,179.331312 185.248005,178.541886 186.292007,177.757184 187.335994,176.977169 188.379996,176.201820 189.423998,175.431100 190.468000,174.664999 191.512002,173.903469 192.556004,173.146491 193.600006,172.394037 194.643993,171.646086 195.687995,170.902602 196.731997,170.163565 197.775999,169.428937 198.820001,168.698707 199.864003,167.972848 200.908005,167.251321 201.952008,166.534117 202.995994,165.821197 204.039996,165.112533 205.083998,164.408114 206.128000,163.707904 207.172003,163.011882 208.216005,162.320030 209.260007,161.632309 210.303993,160.948710 211.347996,160.269175 212.391998,159.593676 213.436000,158.922232 214.480002,158.254785 215.524004,157.591336 216.568006,156.931855 217.611993,156.276305 218.655995,155.624686 219.699997,154.976958 220.743999,154.333104 221.788001,153.693094 222.832003,153.056919 223.876005,152.424550 224.920007,151.795959 225.963994,151.171135 227.007996,150.550041 228.051998,149.932668 229.096000,149.318995 230.140002,148.708995 231.184005,148.102647 232.228007,147.499934 233.271993,146.900836 234.315995,146.305323 235.359998,145.713388 236.404000,145.125000 237.448002,144.540142 238.492004,143.958793 239.536006,143.380934 240.579993,142.806547 241.623995,142.235574 242.667997,141.667920 243.711999,141.103651 244.756001,140.542758 245.800003,139.985221 246.844005,139.431013 247.888007,138.880122 248.931994,138.332522 249.975996,137.788202 251.019998,137.247133 252.064000,136.709307 253.108002,136.174693 254.152004,135.643283 255.196007,135.115058 256.239993,134.589989 257.283995,134.068066 258.327997,133.549270 259.372000,133.033582 260.416002,132.520983 261.460004,132.011463 262.504006,131.504985 263.547992,131.001557 264.591995,130.501142 265.635997,130.003739 266.679999,129.509320 267.724001,129.017865 268.768003,128.529366 269.812005,128.043802 270.856007,127.561155 271.899994,127.081415 272.943996,126.604459 273.987998,126.130304 275.032000,125.658990 276.076002,125.190487 277.120004,124.724795 278.164006,124.261887 279.207993,123.801752 280.251995,123.344362 281.295997,122.889716 282.339999,122.437786 283.384001,121.988572 284.428004,121.542036 285.472006,121.098178 286.515992,120.656978 287.559994,120.218427 288.603997,119.782497 289.647999,119.349187 290.692001,118.918468 291.736003,118.490332 292.780005,118.064768 293.824007,117.641757 294.867994,117.221281 295.911996,116.803339 296.955998,116.387893 298.000000,115.974953 299.043987,115.564499 300.088004,115.156512 301.131991,114.750973 302.176008,114.347883 303.219995,113.947184 304.264013,113.548779 305.307999,113.152766 306.351986,112.759124 307.396003,112.367835 308.439990,111.978879 309.484008,111.592256 310.527994,111.207948 311.572012,110.825935 312.615999,110.446217 313.659985,110.068757 314.704003,109.693572 315.747989,109.320625 316.792007,108.949916 317.835994,108.581425 318.880011,108.215134 319.923998,107.851062 320.968015,107.489151 322.012002,107.129420 323.055989,106.771832 324.100006,106.416405 325.143993,106.063100 326.188010,105.711919 327.231997,105.362861 328.276015,105.015869 329.320001,104.670980 330.363988,104.328177 331.408005,103.987420 332.451992,103.648709 333.496010,103.312045 334.539996,102.977313 335.584014,102.644569 336.628000,102.313815 337.671987,101.985031 338.716005,101.658217 339.759991,101.333373 340.804009,101.010461 341.847996,100.689481 342.892013,100.370413 343.936000,100.053258 344.979986,99.738016 346.024004,99.424648 347.067991,99.113173 348.112008,98.803535 349.155995,98.495771 350.200012,98.189843 351.243999,97.885770 352.287986,97.583495 353.332003,97.283038 354.375990,96.984378 355.420007,96.687516 356.463994,96.392433 357.508012,96.099129 358.551998,95.807584 359.595985,95.517780 360.640002,95.229716 361.683989,94.943393 362.728007,94.658791 363.771993,94.375891 364.816011,94.094694 365.859998,93.815122 366.904015,93.537215 367.948002,93.260990 368.991988,92.986411 370.036006,92.713476 371.079993,92.442186 372.124010,92.172503 373.167997,91.904445 374.212014,91.637995 375.256001,91.373131 376.299988,91.109875 377.344005,90.848167 378.387992,90.588047 379.432009,90.329476 380.475996,90.072455 381.520014,89.816983 382.564000,89.563021 383.607987,89.310590 384.652004,89.059670 385.695991,88.810261 386.740009,88.562344 387.783995,88.315918 388.828013,88.070946 389.872000,87.827467 390.915986,87.585440 391.960004,87.344848 393.003990,87.105729 394.048008,86.868026 395.091995,86.631737 396.136012,86.396864 397.179999,86.163406 398.223985,85.931345 399.268003,85.700661 400.311990,85.471373 401.356007,85.243442 402.399994,85.016889 403.444011,84.791694 404.487998,84.567838 405.531985,84.345321 406.576002,84.124142 407.619989,83.904303 408.664006,83.685764 409.707993,83.468525 410.752011,83.252587 411.795997,83.037950 412.840015,82.824614 413.884001,82.612520 414.927988,82.401727 415.972006,82.192178 417.015992,81.983871 418.060010,81.776827 419.103997,81.571027 420.148014,81.366450 421.192001,81.163078 422.235987,80.960950 423.280005,80.760007 424.323992,80.560269 425.368009,80.361737 426.411996,80.164390 427.456013,79.968229 428.500000,79.773253 429.543987,79.579445 430.588004,79.386784 431.631991,79.195290 432.676008,79.004924 433.719995,78.815706 434.764013,78.627635 435.807999,78.440674 436.851986,78.254822 437.896003,78.070099 438.939990,77.886485 439.984008,77.703942 441.027994,77.522508 442.072012,77.342165 443.115999,77.162892 444.159985,76.984691 445.204003,76.807561 446.247989,76.631482 447.292007,76.456456 448.335994,76.282482 449.380011,76.109540 450.423998,75.937651 451.468015,75.766756 452.512002,75.596913 453.555989,75.428064 454.600006,75.260229 455.643993,75.093389 456.688010,74.927544 457.731997,74.762712 458.776015,74.598874 459.820001,74.435993 460.863988,74.274107 461.908005,74.113177 462.951992,73.953222 463.996010,73.794205 465.039996,73.636163 466.084014,73.479039 467.128000,73.322871 468.171987,73.167641 469.216005,73.013328 470.259991,72.859934 471.304009,72.707458 472.347996,72.555900 473.392013,72.405260 474.436000,72.255499 475.479986,72.106638 476.524004,71.958676 477.567991,71.811593 478.612008,71.665390 479.655995,71.520068 480.700012,71.375605 481.743999,71.232004 482.787986,71.089263 483.832003,70.947383 484.875990,70.806344 485.920007,70.666147 486.963994,70.526792 488.008012,70.388278 489.051998,70.250587 490.095985,70.113718 491.140002,69.977671 492.183989,69.842428 493.228007,69.708007 494.271993,69.574370 495.316011,69.441556 496.359998,69.309526 497.404015,69.178280 498.448002,69.047819 499.491988,68.918141 500.536006,68.789248 501.579993,68.661120 502.624010,68.533756 503.667997,68.407158 504.712014,68.281306 505.756001,68.156219 506.799988,68.031878 507.844005,67.908283 508.887992,67.785414 509.932009,67.663292 510.975996,67.541896 512.020014,67.421227 513.064000,67.301285 514.107987,67.182051 515.152004,67.063543 516.195991,66.945743 517.240009,66.828632 518.283995,66.712228 519.328013,66.596532 520.372000,66.481525 521.415986,66.367206 522.460004,66.253556 523.503990,66.140595 524.548008,66.028323 525.591995,65.916701 526.636012,65.805767 527.679999,65.695484 528.723985,65.585870 529.768003,65.476907 530.811990,65.368594 531.856007,65.260931 532.899994,65.153918 533.944011,65.047537 534.987998,64.941787 536.031985,64.836687 537.076002,64.732199 538.119989,64.628342 539.164006,64.525116 540.207993,64.422503 541.252011,64.320502 542.295997,64.219112 543.340015,64.118316 544.384001,64.018131 545.427988,63.918559 546.472006,63.819579 547.515992,63.721174 548.560010,63.623380 549.603997,63.526141 550.648014,63.429514 551.692001,63.333442 552.735987,63.237963 553.780005,63.143038 554.823992,63.048687 555.868009,62.954910 556.911996,62.861688 557.956013,62.769020 559.000000,62.676907 559.000000,62.676907"/>
	<rect fill="rgb(255,255,255)" stroke="none" stroke-opacity="0.7" x="37" y="9" width="46" height="17"/>
	<polyline fill="none" stroke="rgb(28,108,200)" stroke-width="1" stroke-opacity="1" points="37.000000,18.000000 67.000000,18.000000"/>
	<text x="72" y="18" fill="rgb(0,0,0)" dominant-baseline="central" font-size="11" font-family="Arial" text-anchor="start">x</text>
</svg>
