<?xml version="1.0" standalone="no"?>
<!DOCTYPE svg PUBLIC "-//W3C//DTD SVG 1.1//EN" "http://www.w3.org/Graphics/SVG/1.1/DTD/svg11.dtd">
<svg viewBox="0 0 584.000000 420.000000" version="1.1" xmlns="http://www.w3.org/2000/svg" xmlns:xlink="http://www.w3.org/1999/xlink">
	<polyline fill="none" stroke="rgb(229,229,229)" stroke-width="1" stroke-opacity="1" points="37.000000,34.000000 37.000000,395.000000"/>
	<polyline fill="none" stroke="rgb(229,229,229)" stroke-width="1" stroke-opacity="1" points="89.200000,34.000000 89.200000,395.000000"/>
	<polyline fill="none" stroke="rgb(229,229,229)" stroke-width="1" stroke-opacity="1" points="141.400000,34.000000 141.400000,395.000000"/>
	<polyline fill="none" stroke="rgb(229,229,229)" stroke-width="1" stroke-opacity="1" points="193.600000,34.000000 193.600000,395.000000"/>
	<polyline fill="none" stroke="rgb(229,229,229)" stroke-width="1" stroke-opacity="1" points="245.800000,34.000000 245.800000,395.000000"/>
	<polyline fill="none" stroke="rgb(229,229,229)" stroke-width="1" stroke-opacity="1" points="298.000000,34.000000 298.000000,395.000000"/>
	<polyline fill="none" stroke="rgb(229,229,229)" stroke-width="1" stroke-opacity="1" points="350.200000,34.000000 350.200000,395.000000"/>
	<polyline fill="none" stroke="rgb(229,229,229)" stroke-width="1" stroke-opacity="1" points="402.400000,34.000000 402.400000,395.000000"/>
	<polyline fill="none" stroke="rgb(229,229,229)" stroke-width="1" stroke-opacity="1" points="454.600000,34.000000 454.600000,395.000000"/>
	<polyline fill="none" stroke="rgb(229,229,229)" stroke-width="1" stroke-opacity="1" points="506.800000,34.000000 506.800000,395.000000"/>
	<polyline fill="none" stroke="rgb(229,229,229)" stroke-width="1" stroke-opacity="1" points="559.000000,34.000000 559.000000,395.000000"/>
	<polyline fill="none" stroke="rgb(229,229,229)" stroke-width="1" stroke-opacity="1" points="37.000000,395.000000 559.000000,395.000000"/>
	<polyline fill="none" stroke="rgb(229,229,229)" stroke-width="1" stroke-opacity="1" points="37.000000,358.900000 559.000000,358.900000"/>
	<polyline fill="none" stroke="rgb(229,229,229)" stroke-width="1" stroke-opacity="1" points="37.000000,322.800000 559.000000,322.800000"/>
	<polyline fill="none" stroke="rgb(229,229,229)" stroke-width="1" stroke-opacity="1" points="37.000000,286.700000 559.000000,286.700000"/>
	<polyline fill="none" stroke="rgb(229,229,229)" stroke-width="1" stroke-opacity="1" points="37.000000,250.600000 559.000000,250.600000"/>
	<polyline fill="none" stroke="rgb(229,229,229)" stroke-width="1" stroke-opacity="1" points="37.000000,214.500000 559.000000,214.500000"/>
	<polyline fill="none" stroke="rgb(229,229,229)" stroke-width="1" stroke-opacity="1" points="37.000000,178.400000 559.000000,178.400000"/>
	<polyline fill="none" stroke="rgb(229,229,229)" stroke-width="1" stroke-opacity="1" points="37.000000,142.300000 559.000000,142.300000"/>
	<polyline fill="none" stroke="rgb(229,229,229)" stroke-width="1" stroke-opacity="1" points="37.000000,106.200000 559.000000,106.200000"/>
	<polyline fill="none" stroke="rgb(229,229,229)" stroke-width="1" stroke-opacity="1" points="37.000000,70.100000 559.000000,70.100000"/>
	<polyline fill="none" stroke="rgb(229,229,229)" stroke-width="1" stroke-opacity="1" points="37.000000,34.000000 559.000000,34.000000"/>
	<polyline fill="none" stroke="rgb(0,0,0)" stroke-width="1" stroke-opacity="1" points="37.000000,395.000000 559.000000,395.000000"/>
	<polyline fill="none" stroke="rgb(0,0,0)" stroke-width="1" stroke-opacity="1" points="559.000000,395.000000 559.000000,34.000000"/>
	<polyline fill="none" stroke="rgb(0,0,0)" stroke-width="1" stroke-opacity="1" points="559.000000,34.000000 37.000000,34.000000"/>
	<polyline fill="none" stroke="rgb(0,0,0)" stroke-width="1" stroke-opacity="1" points="37.000000,34.000000 37.000000,395.000000"/>
	<polyline fill="none" stroke="rgb(0,0,0)" stroke-width="1" stroke-opacity="1" points="37.000000,395.000000 37.000000,399.000000"/>
	<polyline fill="none" stroke="rgb(0,0,0)" stroke-width="1" stroke-opacity="1" points="89.200000,395.000000 89.200000,399.000000"/>
	<polyline fill="none" stroke="rgb(0,0,0)" stroke-width="1" stroke-opacity="1" points="141.400000,395.000000 141.400000,399.000000"/>
	<polyline fill="none" stroke="rgb(0,0,0)" stroke-width="1" stroke-opacity="1" points="193.600000,395.000000 193.600000,399.000000"/>
	<polyline fill="none" stroke="rgb(0,0,0)" stroke-width="1" stroke-opacity="1" points="245.800000,395.000000 245.800000,399.000000"/>
	<polyline fill="none" stroke="rgb(0,0,0)" stroke-width="1" stroke-opacity="1" points="298.000000,395.000000 298.000000,399.000000"/>
	<polyline fill="none" stroke="rgb(0,0,0)" stroke-width="1" stroke-opacity="1" points="350.200000,395.000000 350.200000,399.000000"/>
	<polyline fill="none" stroke="rgb(0,0,0)" stroke-width="1" stroke-opacity="1" points="402.400000,395.000000 402.400000,399.000000"/>
	<polyline fill="none" stroke="rgb(0,0,0)" stroke-width="1" stroke-opacity="1" points="454.600000,395.000000 454.600000,399.000000"/>
	<polyline fill="none" stroke="rgb(0,0,0)" stroke-width="1" stroke-opacity="1" points="506.800000,395.000000 506.800000,399.000000"/>
	<polyline fill="none" stroke="rgb(0,0,0)" stroke-width="1" stroke-opacity="1" points="559.000000,395.000000 559.000000,399.000000"/>
	<polyline fill="none" stroke="rgb(0,0,0)" stroke-width="1" stroke-opacity="1" points="37.000000,395.000000 37.000000,401.400000"/>
	<text x="37" y="410" fill="rgb(0,0,0)" dominant-baseline="central" font-size="11" font-family="Arial" text-anchor="middle">0.0</text>
	<polyline fill="none" stroke="rgb(0,0,0)" stroke-width="1" stroke-opacity="1" points="141.400000,395.000000 141.400000,401.400000"/>
	<text x="141.4" y="410" fill="rgb(0,0,0)" dominant-baseline="central" font-size="11" font-family="Arial" text-anchor="middle">0.2</text>
	<polyline fill="none" stroke="rgb(0,0,0)" stroke-width="1" stroke-opacity="1" points="245.800000,395.000000 245.800000,401.400000"/>
	<text x="245.8" y="410" fill="rgb(0,0,0)" dominant-baseline="central" font-size="11" font-family="Arial" text-anchor="middle">0.4</text>
	<polyline fill="none" stroke="rgb(0,0,0)" stroke-width="1" stroke-opacity="1" points="350.200000,395.000000 350.200000,401.400000"/>
	<text x="350.2" y="410" fill="rgb(0,0,0)" dominant-baseline="central" font-size="11" font-family="Arial" text-anchor="middle">0.6</text>
	<polyline fill="none" stroke="rgb(0,0,0)" stroke-width="1" stroke-opacity="1" points="454.600000,395.000000 454.600000,401.400000"/>
	<text x="454.6" y="410" fill="rgb(0,0,0)" dominant-baseline="central" font-size="11" font-family="Arial" text-anchor="middle">0.8</text>
	<polyline fill="none" stroke="rgb(0,0,0)" stroke-width="1" stroke-opacity="1" points="559.000000,395.000000 559.000000,401.400000"/>
	<text x="559" y="410" fill="rgb(0,0,0)" dominant-baseline="central" font-size="11" font-family="Arial" text-anchor="middle">1.0</text>
	<polyline fill="none" stroke="rgb(0,0,0)" stroke-width="1" stroke-opacity="1" points="33.000000,395.000000 37.000000,395.000000"/>
	<polyline fill="none" stroke="rgb(0,0,0)" stroke-width="1" stroke-opacity="1" points="33.000000,358.900000 37.000000,358.900000"/>
	<polyline fill="none" stroke="rgb(0,0,0)" stroke-width="1" stroke-opacity="1" points="33.000000,322.800000 37.000000,322.800000"/>
	<polyline fill="none" stroke="rgb(0,0,0)" stroke-width="1" stroke-opacity="1" points="33.000000,286.700000 37.000000,286.700000"/>
	<polyline fill="none" stroke="rgb(0,0,0)" stroke-width="1" stroke-opacity="1" points="33.000000,250.600000 37.000000,250.600000"/>
	<polyline fill="none" stroke="rgb(0,0,0)" stroke-width="1" stroke-opacity="1" points="33.000000,214.500000 37.000000,214.500000"/>
	<polyline fill="none" stroke="rgb(0,0,0)" stroke-width="1" stroke-opacity="1" points="33.000000,178.400000 37.000000,178.400000"/>
	<polyline fill="none" stroke="rgb(0,0,0)" stroke-width="1" stroke-opacity="1" points="33.000000,142.300000 37.000000,142.300000"/>
	<polyline fill="none" stroke="rgb(0,0,0)" stroke-width="1" stroke-opacity="1" points="33.000000,106.200000 37.000000,106.200000"/>
	<polyline fill="none" stroke="rgb(0,0,0)" stroke-width="1" stroke-opacity="1" points="33.000000,70.100000 37.000000,70.100000"/>
	<polyline fill="none" stroke="rgb(0,0,0)" stroke-width="1" stroke-opacity="1" points="33.000000,34.000000 37.000000,34.000000"/>
	<rect fill="none" stroke="none" stroke-dasharray="none" stroke-width="1" stroke-opacity="1" x="-22" y="388" width="51" height="14"/>
	<polyline fill="none" stroke="rgb(0,0,0)" stroke-width="1" stroke-opacity="1" points="30.600000,395.000000 37.000000,395.000000"/>
	<text x="29" y="395" fill="rgb(0,0,0)" dominant-baseline="central" font-size="11" font-family="Arial" text-anchor="end">0</text>
	<polyline fill="none" stroke="rgb(0,0,0)" stroke-width="1" stroke-opacity="1" points="30.600000,358.900000 37.000000,358.900000"/>
	<text x="29" y="358.9" fill="rgb(0,0,0)" dominant-baseline="central" font-size="11" font-family="Arial" text-anchor="end">1</text>
	<polyline fill="none" stroke="rgb(0,0,0)" stroke-width="1" stroke-opacity="1" points="30.600000,322.800000 37.000000,322.800000"/>
	<text x="29" y="322.8" fill="rgb(0,0,0)" dominant-baseline="central" font-size="11" font-family="Arial" text-anchor="end">2</text>
	<polyline fill="none" stroke="rgb(0,0,0)" stroke-width="1" stroke-opacity="1" points="30.600000,286.700000 37.000000,286.700000"/>
	<text x="29" y="286.7" fill="rgb(0,0,0)" dominant-baseline="central" font-size="11" font-family="Arial" text-anchor="end">3</text>
	<polyline fill="none" stroke="rgb(0,0,0)" stroke-width="1" stroke-opacity="1" points="30.600000,250.600000 37.000000,250.600000"/>
	<text x="29" y="250.6" fill="rgb(0,0,0)" dominant-baseline="central" font-size="11" font-family="Arial" text-anchor="end">4</text>
	<polyline fill="none" stroke="rgb(0,0,0)" stroke-width="1" stroke-opacity="1" points="30.600000,214.500000 37.000000,214.500000"/>
	<text x="29" y="214.5" fill="rgb(0,0,0)" dominant-baseline="central" font-size="11" font-family="Arial" text-anchor="end">5</text>
	<polyline fill="none" stroke="rgb(0,0,0)" stroke-width="1" stroke-opacity="1" points="30.600000,178.400000 37.000000,178.400000"/>
	<text x="29" y="178.4" fill="rgb(0,0,0)" dominant-baseline="central" font-size="11" font-family="Arial" text-anchor="end">6</text>
	<polyline fill="none" stroke="rgb(0,0,0)" stroke-width="1" stroke-opacity="1" points="30.600000,142.300000 37.000000,142.300000"/>
	<text x="29" y="142.3" fill="rgb(0,0,0)" dominant-baseline="central" font-size="11" font-family="Arial" text-anchor="end">7</text>
	<polyline fill="none" stroke="rgb(0,0,0)" stroke-width="1" stroke-opacity="1" points="30.600000,106.200000 37.000000,106.200000"/>
	<text x="29" y="106.2" fill="rgb(0,0,0)" dominant-baseline="central" font-size="11" font-family="Arial" text-anchor="end">8</text>
	<polyline fill="none" stroke="rgb(0,0,0)" stroke-width="1" stroke-opacity="1" points="30.600000,70.100000 37.000000,70.100000"/>
	<text x="29" y="70.1" fill="rgb(0,0,0)" dominant-baseline="central" font-size="11" font-family="Arial" text-anchor="end">9</text>
	<polyline fill="none" stroke="rgb(0,0,0)" stroke-width="1" stroke-opacity="1" points="30.600000,34.000000 37.000000,34.000000"/>
	<text x="29" y="34" fill="rgb(0,0,0)" dominant-baseline="central" font-size="11" font-family="Arial" text-anchor="end">10</text>
	<clipPath id="clipArea1">
		<rect x="37" y="34" width="522" height="361">
		</rect>
	</clipPath>
	<polyline fill="none" stroke="rgb(28,108,200)" stroke-width="1" stroke-opacity="1" clip-path="url(#clipArea1)" points="37.000000,358.900000 63.100000,349.875000 89.200001,340.398748 115.300003,330.448686 141.400002,320.001119 167.500000,309.031181 193.600006,297.512733 219.699997,285.418371 245.800003,272.719296 271.899994,259.385255 298.000000,245.384522 324.100006,230.683746 350.200012,215.247941 376.299988,199.040336 402.399994,182.022339 428.500000,164.153463 454.600006,145.391138 480.700012,125.690694 506.799988,105.005223 532.899994,83.285477 559.000000,60.479780 559.000000,60.479780"/>
	<rect fill="rgb(255,255,255)" stroke="none" stroke-opacity="0.7" x="37" y="9" width="46" height="17"/>
	<polyline fill="none" stroke="rgb(28,108,200)" stroke-width="1" stroke-opacity="1" points="37.000000,18.000000 67.000000,18.000000"/>
	<text x="72" y="18" fill="rgb(0,0,0)" dominant-baseline="central" font-size="11" font-family="Arial" text-anchor="start">x</text>
</svg>
